<svg xmlns="http://www.w3.org/2000/svg" viewBox="0 0 299.12 416.65"><path d="M385.7,455.88H124.07a16.24,16.24,0,0,1-16.24-16.24V73.13a16.24,16.24,0,0,1,16.24-16.25H385.7a16.61,16.61,0,0,1,11.49,4.76A16.2,16.2,0,0,1,402,73.13V439.64A16.25,16.25,0,0,1,385.7,455.88Z" transform="translate(-105.33 -41.73)" style="fill:#fef6e0;stroke:#c49a6c;stroke-linecap:round;stroke-linejoin:round;stroke-width:5px"/><path d="M143.37,139.79l223-.46" transform="translate(-105.33 -41.73)" style="fill:none;stroke:#603913;stroke-linecap:round;stroke-linejoin:round;stroke-width:6px"/><path d="M143.37,182.29l223-.45" transform="translate(-105.33 -41.73)" style="fill:none;stroke:#603913;stroke-linecap:round;stroke-linejoin:round;stroke-width:6px"/><path d="M143.37,224.8l223-.45" transform="translate(-105.33 -41.73)" style="fill:none;stroke:#603913;stroke-linecap:round;stroke-linejoin:round;stroke-width:6px"/><path d="M143.37,268.3l223-.46" transform="translate(-105.33 -41.73)" style="fill:none;stroke:#603913;stroke-linecap:round;stroke-linejoin:round;stroke-width:6px"/><path d="M143.37,310.8l223-.45" transform="translate(-105.33 -41.73)" style="fill:none;stroke:#603913;stroke-linecap:round;stroke-linejoin:round;stroke-width:6px"/><path d="M143.37,353.31l223-.45" transform="translate(-105.33 -41.73)" style="fill:none;stroke:#603913;stroke-linecap:round;stroke-linejoin:round;stroke-width:6px"/><circle cx="43.84" cy="29.81" r="7.27" style="fill:#8b5e3c"/><path d="M143.14,75.05" transform="translate(-105.33 -41.73)" style="fill:#fef6e0;stroke:#c49a6c;stroke-linecap:round;stroke-linejoin:round;stroke-width:5px"/><path d="M159.54,56.88c0-.74-.44-6.26-5.08-9.45a12.28,12.28,0,0,0-8.22-1.89,12.15,12.15,0,0,0-7.67,3.35,12,12,0,0,0-3.41,8.65c.15,5.84,5.36,11.52,13,13.62" transform="translate(-105.33 -41.73)" style="fill:none;stroke:#231f20;stroke-linecap:round;stroke-linejoin:round;stroke-width:5px"/><circle cx="86.76" cy="29.27" r="7.27" style="fill:#8b5e3c"/><path d="M202,56.72c0-.73-.44-6.26-5.08-9.44A13.36,13.36,0,0,0,181,48.74a12,12,0,0,0-3.41,8.64c.15,5.85,5.36,11.52,13,13.63" transform="translate(-105.33 -41.73)" style="fill:none;stroke:#231f20;stroke-linecap:round;stroke-linejoin:round;stroke-width:5px"/><circle cx="128.1" cy="28.58" r="7.27" style="fill:#8b5e3c"/><path d="M243.8,55.65c0-.74-.44-6.26-5.08-9.44a13.39,13.39,0,0,0-15.9,1.45,12.06,12.06,0,0,0-3.4,8.65c.14,5.85,5.35,11.52,13,13.62" transform="translate(-105.33 -41.73)" style="fill:none;stroke:#231f20;stroke-linecap:round;stroke-linejoin:round;stroke-width:5px"/><circle cx="171.57" cy="29.81" r="7.27" style="fill:#8b5e3c"/><path d="M287.27,56.88c0-.74-.44-6.26-5.08-9.45A12.3,12.3,0,0,0,274,45.54a12.15,12.15,0,0,0-7.67,3.35,12,12,0,0,0-3.41,8.65c.14,5.84,5.36,11.52,13,13.62" transform="translate(-105.33 -41.73)" style="fill:none;stroke:#231f20;stroke-linecap:round;stroke-linejoin:round;stroke-width:5px"/><circle cx="215.05" cy="29.4" r="7.27" style="fill:#8b5e3c"/><path d="M330.75,56.47c0-.74-.44-6.26-5.08-9.45a13.42,13.42,0,0,0-15.9,1.46,12.06,12.06,0,0,0-3.4,8.65c.14,5.85,5.35,11.52,13,13.62" transform="translate(-105.33 -41.73)" style="fill:none;stroke:#231f20;stroke-linecap:round;stroke-linejoin:round;stroke-width:5px"/><circle cx="257.61" cy="28.46" r="7.27" style="fill:#8b5e3c"/><path d="M373.31,55.91c0-.74-.44-6.26-5.08-9.45a13.4,13.4,0,0,0-15.89,1.46,12,12,0,0,0-3.41,8.65c.09,3.34,5.41,11.54,13,13.62" transform="translate(-105.33 -41.73)" style="fill:none;stroke:#231f20;stroke-linecap:round;stroke-linejoin:round;stroke-width:5px"/><path d="M147.05,56.88h20" transform="translate(-105.33 -41.73)" style="fill:#fef6e0;stroke:#c49a6c;stroke-linecap:round;stroke-linejoin:round;stroke-width:5px"/><path d="M194.27,56.88h13" transform="translate(-105.33 -41.73)" style="fill:#fef6e0;stroke:#c49a6c;stroke-linecap:round;stroke-linejoin:round;stroke-width:5px"/><path d="M237.33,56.88h13.86" transform="translate(-105.33 -41.73)" style="fill:#fef6e0;stroke:#c49a6c;stroke-linecap:round;stroke-linejoin:round;stroke-width:5px"/><path d="M280.57,56.88h13.86" transform="translate(-105.33 -41.73)" style="fill:#fef6e0;stroke:#c49a6c;stroke-linecap:round;stroke-linejoin:round;stroke-width:5px"/><path d="M324.21,56.88h13.86" transform="translate(-105.33 -41.73)" style="fill:#fef6e0;stroke:#c49a6c;stroke-linecap:round;stroke-linejoin:round;stroke-width:5px"/><path d="M365.26,56.88h13.86" transform="translate(-105.33 -41.73)" style="fill:#fef6e0;stroke:#c49a6c;stroke-linecap:round;stroke-linejoin:round;stroke-width:5px"/><path d="M250.34,242.3a25.42,25.42,0,0,1,19.42,6.36,19.76,19.76,0,0,0-15.8,7.45" transform="translate(-105.33 -41.73)" style="fill:#a97c50;stroke:#8b5e3c;stroke-miterlimit:10;stroke-width:5px"/><path d="M263.41,297.91a37.07,37.07,0,0,0-13.58-3,36.57,36.57,0,0,0-7.64.63,20.91,20.91,0,0,1,9.59-8.58,20.41,20.41,0,0,1,9-1.64" transform="translate(-105.33 -41.73)" style="fill:#a97c50;stroke:#8b5e3c;stroke-miterlimit:10;stroke-width:5px"/><path d="M246.3,418.62c23.54-47.5,23.65-80.61,20.81-99.95-1-6.67-4.52-26.78-10.11-50.26-5.73-24.1-8.53-30.39-10.28-44.44a160.64,160.64,0,0,1,2.46-53.09" transform="translate(-105.33 -41.73)" style="fill:none;stroke:#00a651;stroke-linecap:round;stroke-miterlimit:10;stroke-width:6px"/><path d="M230.48,173.43a18.84,18.84,0,0,0,34.11.28" transform="translate(-105.33 -41.73)" style="fill:#14753b;stroke:#00a651;stroke-miterlimit:10;stroke-width:5px"/><path d="M285.81,169.64c12.63-4.33,18.47-9.29,22.22-14.4a35.86,35.86,0,0,0,5.92-13,32.93,32.93,0,0,0-7.15,1.85c-6,2.3-9.57,5.71-9.88,5.35s7.88-6,11.94-15.64a32,32,0,0,0,2.43-12.14,23.49,23.49,0,0,0-14.78-9.26c-11.05,8.29-14.16,10.18-14.4,9.88s3.95-3.29,5.35-8.64a15.41,15.41,0,0,0,0-7.33,16.11,16.11,0,0,0-7.81-3c-7-.65-11.89,3.73-12.76,4.53l1.23-10.7a23,23,0,0,0-11.52-4.94,23.35,23.35,0,0,0-14.4,2.88,23.32,23.32,0,0,0-7.41,15.64A26.59,26.59,0,0,0,213,98.86a51.88,51.88,0,0,0-3.7,29.22l-13.58-11.52c-3,4.67-6,11.33-4.28,18.08,1.64,6.45,7.25,11.47,6.33,12.37-.63.63-3.16-2.06-7.4-2.47a13.32,13.32,0,0,0-7.41,1.65c3.77,10.22,9.43,15.54,12.76,18.11,4.14,3.18,10.58,7.08,34.11,9.07C249.75,175.06,266.42,176.3,285.81,169.64Z" transform="translate(-105.33 -41.73)" style="fill:#dd1f26;stroke:#c82127;stroke-miterlimit:10;stroke-width:5px"/><path d="M187.87,128.9" transform="translate(-105.33 -41.73)" style="fill:none;stroke:#ee2d2b;stroke-miterlimit:10;stroke-width:5px"/><path d="M219.14,151.54" transform="translate(-105.33 -41.73)" style="fill:none;stroke:#ee2d2b;stroke-miterlimit:10;stroke-width:5px"/><path d="M222,143.72" transform="translate(-105.33 -41.73)" style="fill:#dd1f26;stroke:#c82127;stroke-miterlimit:10;stroke-width:5px"/><path d="M270.93,173.4c6.72-5.54,8.16-10.16,8.27-13.31s-1-4.87-2.25-10.19a50.1,50.1,0,0,1-1.23-12.35,46,46,0,0,0-14.05,3.31A9.21,9.21,0,0,0,262,138a9.51,9.51,0,0,0-1.69-4.9,16.09,16.09,0,0,0-9.89,3.05,14.94,14.94,0,0,0-2.9,2.9,17.22,17.22,0,0,0-10.21-5.07,22.42,22.42,0,0,0-2.53,11.7,29.11,29.11,0,0,1-4-1.22,29.59,29.59,0,0,1-3.92-1.86,13.06,13.06,0,0,0,.1,4c.36,2,1,2.72,1.37,4.61a11.21,11.21,0,0,1-.05,4.17l-10.53-5a27.26,27.26,0,0,0,11,23" transform="translate(-105.33 -41.73)" style="fill:none;stroke:#c82127;stroke-miterlimit:10;stroke-width:5px"/></svg>